<svg id="Capa_1" enable-background="new 0 0 512.025 512.025" height="512" viewBox="0 0 512.025 512.025" width="512" xmlns="http://www.w3.org/2000/svg"><g><path d="m208.594 187.908c8.478 0 16.539-3.671 22.119-10.073 2.721-3.123 2.396-7.86-.727-10.582s-7.86-2.397-10.582.726c-2.729 3.132-6.67 4.929-10.811 4.929s-8.08-1.796-10.81-4.928c-2.721-3.123-7.459-3.448-10.581-.727-3.123 2.721-3.449 7.458-.728 10.582 5.58 6.401 13.643 10.073 22.12 10.073zm245.726 2.688c-33.832-33.83-84.523-38.182-113.001-9.704-1.878 1.878-3.711 3.732-5.527 5.586-7.796-9.394-16.667-19.229-25.384-27.485 3.351-7.007 5.824-14.371 7.356-21.961 9.62-8.461 14.798-21.388 12.995-34.71l-1.859-13.74c-1.242-9.178-6.01-17.234-12.83-22.768-18.675-40.882-61.711-65.814-107.476-65.814-45.902 0-88.853 25.047-107.477 65.814-6.819 5.534-11.587 13.589-12.829 22.767l-1.859 13.741c-1.803 13.323 3.375 26.25 12.995 34.71 3.942 19.529 14.159 37.574 29.291 51.853-14.943-.812-31.901-3.388-45.092-8.064-3.906-1.383-8.191.659-9.575 4.564-1.384 3.904.659 8.191 4.563 9.575 2.495.884 5.121 1.694 7.827 2.444-.887 13.486-4.788 30.179-10.462 40.126-6.767-1.844-13.26-4.029-19.236-6.583-14.74-6.298-16.924-26.171-4.352-35.638 3.309-2.492 3.97-7.194 1.479-10.503-2.491-3.308-7.193-3.971-10.504-1.479-21.768 16.398-17.828 50.598 7.482 61.413 26.623 11.375 62.018 16.243 91.011 15.828 1.618 14.988 6.757 29.266 15.104 41.874.537 6.473 2.837 12.694 6.767 18.071 5.618 7.688 11.49 14.88 17.803 21.835-8.848 7.866-18.494 16.825-29.739 28.07-13.988 13.989-20.566 33.591-18.518 55.197 1.997 21.072 12.021 41.6 28.222 57.802 32.478 32.478 83.241 39.463 113 9.705 20.584-20.585 33.539-35.832 46.068-50.578 12.707-14.956 24.709-29.081 44.253-48.626 10.487-10.486 20.49-19.865 31.479-29.517 3.112-2.733 3.419-7.472.687-10.585-2.734-3.111-7.473-3.419-10.585-.686-11.238 9.87-21.466 19.46-32.188 30.18-16.837 16.838-28.544 30.15-39.199 42.618h-56.623c-10.381 0-18.826-8.446-18.826-18.827v-13.825c0-18.652-15.175-33.826-33.827-33.826h-20.774c26.891-24.539 44.838-36.942 76.645-68.749 14.704-14.704 25.488-26.714 34.867-37.571 1.587 2.241 2.76 3.917 3.464 4.882 11.59 15.902 33.988 19.461 49.941 7.834 6.096-4.443 10.305-10.409 12.507-17.079 7.98 2.184 13.87 9.479 13.87 18.143v13.825c0 18.652 15.175 33.826 33.826 33.826h20.79c-6.309 5.758-12.02 10.742-17.392 15.358-3.142 2.7-3.5 7.435-.801 10.577 2.699 3.141 7.436 3.5 10.576.8 11.319-9.726 24.092-21.025 40.771-37.703 28.478-28.476 24.124-79.167-9.704-112.997zm-245.726-175.596c36.501 0 68.037 17.485 85.794 42.975-34.328-1.869-74.988 11.656-85.794 11.656-10.614 0-51.696-13.514-85.793-11.656 17.756-25.489 49.292-42.975 85.793-42.975zm-107.299 89.334 1.859-13.741c1.275-9.424 8.956-16.791 18.262-17.515 32.582-2.54 73.167 11.554 87.179 11.554 14.032 0 54.583-14.097 87.179-11.554 9.307.725 16.987 8.09 18.262 17.515l1.859 13.741c1.555 11.485-5.293 22.497-16.282 26.183l-30.553 10.247c-9.108 3.055-19.045 1.948-27.258-3.04-5.404-2.652-15.428-12.108-33.207-12.108-17.897 0-27.977 9.542-33.206 12.108-8.214 4.987-18.148 6.096-27.258 3.04l-30.554-10.247c-10.988-3.686-17.837-14.698-16.282-26.183zm16.384 42.038 25.682 8.613c13.304 4.462 27.816 2.845 39.813-4.44l8.519-5.173c10.426-6.331 23.379-6.331 33.805 0 5.434 2.672 15.41 12.09 33.188 12.09 5.087 0 10.198-.819 15.144-2.477l25.663-8.607c-13.17 34.676-49.483 58.398-90.898 58.398-41.423 0-77.765-23.757-90.916-58.404zm23.742 99.203c-14.996.19-33.021-1.201-50.437-4.574 4.893-10.24 9.085-24.781 10.296-40.254 14.84 2.666 32.977 4.067 47.534 3.114 1.154.672 2.314 1.335 3.493 1.966-6.497 12.246-10.21 25.777-10.886 39.748zm64.315 128.876c10.381 0 18.827 8.445 18.827 18.826v13.825c0 18.652 15.175 33.827 33.826 33.827h43.846c-10.384 12.123-21.901 25.143-38.346 41.587-10.77 10.769-26.103 15.806-43.175 14.191-17.606-1.669-34.87-10.155-48.61-23.896-13.741-13.74-22.228-31.004-23.895-48.61-1.618-17.073 3.422-32.406 14.191-43.176 2.287-2.287 4.5-4.467 6.661-6.574zm-12.9-41.968c-6.033-6.629-11.637-13.486-16.997-20.82-6.764-9.255-4.752-22.225 4.508-28.99 9.232-6.75 22.241-4.729 28.99 4.507 4.579 6.265 9.521 12.261 14.977 18.186-10.991 9.826-20.742 17.897-31.478 27.117zm58.161-52.387c-5.609 5.609-10.762 10.582-15.626 15.144-4.085-4.436-7.85-8.912-11.378-13.517-4.836-9.064-2.275-20.384 6.061-26.477 9.255-6.765 22.223-4.751 28.991 4.508 1.656 2.266 3.388 4.522 5.168 6.755-4.045 4.278-8.412 8.783-13.216 13.587zm23.522-24.747c-1.148-1.476-2.276-2.959-3.364-4.447-11.657-15.95-34-19.424-49.952-7.766-7.964 5.821-12.853 14.417-14.226 23.582-11.288-4.944-24.835-3.938-35.482 3.844-3.751 2.741-6.867 6.118-9.253 9.945-9.026-21.986-7.789-47.333 3.752-68.477 13.398 5.066 27.865 7.745 42.601 7.745 17.821 0 35.246-3.922 50.862-11.247 8.839 7.44 19.691 21.026 27.966 32.123-3.998 4.657-8.232 9.517-12.904 14.698zm23.025-26.18c-7.785-10.305-16.312-20.732-24.248-28.329 11.741-7.667 21.673-17.313 29.365-28.476 10.066 9.873 20.302 21.824 28.413 32.152-13.177 5.611-25.475 15.718-33.53 24.653zm43.499 24.557c-9.244 6.736-22.249 4.697-28.985-4.546-.035-.049-4.291-6.049-5.424-7.63 7.279-8.899 20.797-20.203 33.778-24.57 2.03 2.869 3.677 5.34 4.824 7.233 5.527 9.119 5.862 22.185-4.193 29.513zm112.375 39.263c-2.295 2.295-4.508 4.476-6.659 6.574h-36.679c-10.381 0-18.826-8.445-18.826-18.826v-13.825c0-16.411-11.753-30.112-27.28-33.17-.591-5.826-2.533-11.734-5.909-17.305-2.522-4.161-7.073-10.658-12.834-18.152 2.197-2.255 4.413-4.504 6.696-6.787 22.631-22.631 63.807-18.274 91.786 9.704 27.981 27.982 32.334 69.157 9.705 91.787z"/></g></svg>