<svg id="Capa_1" enable-background="new 0 0 512 512" height="512" viewBox="0 0 512 512" width="512" xmlns="http://www.w3.org/2000/svg"><g><path d="m192.107 213.017c-4.403-15.456-20.504-24.414-35.958-20.013-10.442 2.975-41.088 2.749-66.92-3.301-20.441 13.77-22.223 38.008-15.345 56.118 35.361 8.648 76.765 9.262 98.21 3.154 15.455-4.404 24.415-20.502 20.013-35.958z" fill="#e8899e"/><path d="m32.346 199.105c-6.314 14.778.547 31.877 15.325 38.191 7.999 3.418 16.9 6.245 26.214 8.523 9.936-12.486 15.386-39.093 15.345-56.118-6.698-1.569-13.078-3.523-18.691-5.922-14.779-6.314-31.878.548-38.193 15.326z" fill="#565e75"/><path d="m156.149 193.004c-5.281 1.504-15.736 2.189-28.117 1.719-8.923 17.278-13.735 36.846-13.371 57.494 22.716 1.772 43.995.584 57.433-3.243 15.455-4.403 24.415-20.501 20.013-35.957-4.403-15.456-20.504-24.414-35.958-20.013z" fill="#e26e7e"/><ellipse cx="232.55" cy="250.057" fill="#cde9fa" rx="87.011" ry="88.724"/><path d="m277.636 350.47c-19.335-17.013-38.863-32.905-59.266-60.821-9.483-12.974-6.653-31.18 6.322-40.663 12.974-9.483 31.18-6.652 40.663 6.322 16.768 22.941 34.677 37.348 50.728 51.472 12.065 10.617 13.239 29.003 2.621 41.068-10.63 12.078-29.016 13.227-41.068 2.622z" fill="#7ca2dd"/><path d="m226.427 378.724c-19.335-17.013-38.863-32.905-59.266-60.821-9.483-12.974-6.653-31.18 6.322-40.663 12.975-9.484 31.179-6.653 40.663 6.322 16.768 22.942 34.677 37.347 50.728 51.472 12.064 10.617 13.239 29.003 2.621 41.068-10.629 12.078-29.016 13.227-41.068 2.622z" fill="#a0bce7"/><path d="m418.073 217.163c-29.163-23.069-119.501 22.957-119.502 22.958-11.672 13.707-23.891 27.775-42.283 46.166-37.792 37.793-57.346 49.548-93.005 84.013s16.405 61.419 54.867 80.797c38.454 19.373 102.159-12.299 102.186-12.312 11.672-13.707 23.891-27.775 42.283-46.167 37.793-37.793 57.347-49.548 93.005-84.013 0-.003-8.388-68.373-37.551-91.442z" fill="#cde9fa"/><path d="m298.571 240.12.007-.012c-6.591 7.739-13.355 15.593-21.304 24.273 2.886 4.01 4.844 6.811 5.234 7.346 19.278 26.45 56.754 32.883 83.832 13.15 22.991-16.756 30.291-47.197 18.744-73.665-37.479 3.929-86.513 28.908-86.513 28.908z" fill="#a2ddfd"/><path d="m454.821 194.086c-31.889-31.889-79.116-36.365-105.483-9.997-22.989 22.989-36.467 39.24-50.766 56.032h61.896c14.978 0 27.121 12.143 27.121 27.121v14.243c0 14.978 12.142 27.121 27.121 27.121h40.914c2.952-2.853 6.001-5.843 9.194-9.036 26.368-26.369 21.892-73.595-9.997-105.484z" fill="#a0bce7"/><path d="m380.946 203.229c-3.076-5.076-10.469-15.673-20.244-27.911-4.09 2.404-7.91 5.315-11.365 8.77-22.989 22.989-36.467 39.24-50.766 56.032h61.896c12.107 0 22.358 7.935 25.844 18.887 6.834-17.406 5.412-37.998-5.365-55.778z" fill="#7ca2dd"/><path d="m164.088 484.819c31.889 31.889 79.116 36.365 105.483 9.997 22.989-22.989 36.467-39.24 50.766-56.032h-61.896c-14.978 0-27.121-12.142-27.121-27.121v-14.243c0-14.979-12.142-27.121-27.121-27.121h-40.914c-2.952 2.853-6.001 5.843-9.194 9.036-26.368 26.368-21.892 73.595 9.997 105.484z" fill="#e8899e"/><path d="m298.593 241.064c18.367 2.313 39.753-12.908 47.467-34.106-14.479-19.639-41.41-51.539-61.141-62.069-14.177-7.565-31.805-2.206-39.371 11.972-7.567 14.178-2.206 31.805 11.971 39.371 12.14 6.477 30.145 29.798 41.074 44.832z" fill="#e8899e"/><path d="m354.517 219.248c-1.731-2.855-4.676-7.161-8.457-12.29-19.868 4.066-40.485 23.337-47.467 34.106 4.372 6.015 7.616 10.708 8.891 12.459 9.405 12.904 27.583 15.904 40.655 6.378 12.987-9.464 14.707-26.91 6.378-40.653z" fill="#565e75"/><ellipse cx="207.143" cy="114.505" fill="#ffd3bd" rx="106.651" ry="96.451"/><path d="m207.144 185.626c-8.669 0-16.912-3.754-22.616-10.3-2.722-3.123-2.395-7.86.727-10.582 3.121-2.721 7.859-2.397 10.582.727 2.855 3.275 6.976 5.154 11.308 5.154 4.331 0 8.452-1.879 11.307-5.154 2.722-3.123 7.457-3.448 10.582-.727 3.122 2.721 3.448 7.459.727 10.582-5.706 6.546-13.949 10.3-22.617 10.3z" fill="#565e75"/><path d="m94.725 103.137c0-56.961 50.331-103.137 112.418-103.137s112.418 46.176 112.418 103.137z" fill="#e8899e"/><path d="m207.143 71.733c12.865 0 55.783-14.576 90.409-11.879 13.348 1.039 24.075 11.444 25.87 24.711l1.915 14.156c2.1 15.525-7.121 30.353-21.974 35.334l-31.475 10.556c-11.521 3.864-24.16 2.455-34.547-3.853l-8.776-5.329c-13.163-7.993-29.682-7.993-42.846 0l-8.776 5.329c-10.387 6.307-23.026 7.717-34.547 3.853l-31.475-10.556c-14.853-4.981-24.074-19.81-21.974-35.334l1.915-14.156c1.795-13.267 12.523-23.671 25.87-24.711 34.628-2.697 77.546 11.879 90.411 11.879z" fill="#565e75"/><path d="m323.423 84.564c-1.184-8.748-6.264-16.23-13.405-20.625l-75.253 75.253 2.577 1.565c10.387 6.307 23.026 7.717 34.547 3.853l31.475-10.556c14.853-4.981 24.074-19.81 21.974-35.334z" fill="#3a4351"/><path d="m116.734 59.853c-13.348 1.039-24.075 11.444-25.87 24.711l-1.916 14.156c-2.101 15.524 7.121 30.353 21.974 35.334l5.462 1.832 68.092-68.092c-19.004-4.101-45.137-9.701-67.742-7.941z" fill="#3a4351"/><path d="m155.541 154.262c-5.217.001-10.457-.839-15.528-2.54l-31.476-10.556c-18.236-6.116-29.601-24.39-27.021-43.451l1.915-14.155c2.271-16.769 16.031-29.883 32.722-31.183 23.835-1.853 50.667 3.935 70.258 8.163 8.804 1.9 17.118 3.694 20.733 3.694 3.614 0 11.929-1.794 20.731-3.694 19.593-4.228 46.431-10.019 70.26-8.163 16.691 1.3 30.452 14.415 32.721 31.183l1.915 14.156c2.579 19.061-8.785 37.335-27.022 43.451l-31.475 10.556c-13.645 4.576-28.525 2.915-40.825-4.553l-8.776-5.329c-10.811-6.564-24.245-6.567-35.06 0l-8.776 5.329c-7.729 4.692-16.478 7.092-25.296 7.092zm-29.835-87.242c-2.846 0-5.647.098-8.39.312-9.693.755-17.692 8.426-19.021 18.239l-1.915 14.155c-1.616 11.94 5.503 23.387 16.926 27.218l31.476 10.556c9.446 3.169 19.751 2.02 28.27-3.152l8.776-5.329c15.616-9.483 35.016-9.482 50.63 0l8.776 5.329c8.519 5.172 18.821 6.321 28.27 3.152l31.475-10.556c11.423-3.831 18.542-15.278 16.926-27.218l-1.915-14.156c-1.327-9.813-9.326-17.484-19.02-18.239-21.648-1.685-47.243 3.837-65.932 7.87-10.845 2.341-18.681 4.032-23.895 4.032-5.216 0-13.052-1.691-23.898-4.032-16.319-3.522-37.911-8.181-57.539-8.181z" fill="#a0bce7"/></g></svg>