<svg height="477.60001pt" viewBox="0 0 477.60001 477.60001" width="477.60001pt" xmlns="http://www.w3.org/2000/svg"><path d="m477.601562 238.800781c0 131.886719-106.914062 238.800781-238.800781 238.800781s-238.800781-106.914062-238.800781-238.800781 106.914062-238.800781 238.800781-238.800781 238.800781 106.914062 238.800781 238.800781zm0 0" fill="#382b73"/><path d="m445.398438 238.800781c0 114.101563-92.496094 206.597657-206.597657 206.597657-114.101562 0-206.597656-92.496094-206.597656-206.597657 0-114.101562 92.496094-206.597656 206.597656-206.597656 114.101563 0 206.597657 92.496094 206.597657 206.597656zm0 0" fill="#473080"/><path d="m362.734375 177.339844c-7.324219-12.660156-21.003906-20.539063-35.613281-20.539063h-7.140625c.085937.210938.15625.433594.207031.660157-.382812-1.761719-1.929688-3.160157-3.902344-3.160157h-.394531c.023437-.25.078125-.496093.078125-.75 0-1.378906-1.121094-2.5-2.5-2.5h-21.710938c-.046874-.160156-.101562-.316406-.148437-.472656-.121094-.363281-.253906-.71875-.402344-1.070313-.074219-.171874-.15625-.339843-.238281-.507812-.195312-.410156-.402344-.8125-.644531-1.199219-1.765625-2.824219-4.628907-4.914062-8.089844-5.578125l-29.085937-5.5625c-4.382813-.839844-8.800782-1.394531-13.234376-1.738281l3.933594-19.667969c.640625-3.214844-1.816406-6.214844-5.09375-6.214844h-15.898437c-3.277344 0-5.734375 3-5.09375 6.214844l3.933593 19.671875c-4.429687.339844-8.851562.898438-13.234374 1.738281l-29.007813 5.558594c-3.460937.664063-6.324219 2.753906-8.089844 5.578125-.238281.382813-.445312.785157-.644531 1.195313-.082031.167968-.160156.335937-.234375.507812-.148437.351563-.285156.707032-.402344 1.070313-.101562.308593-.175781.621093-.253906.9375-.0625.277343-.136719.554687-.183594.839843-.105469.632813-.171875 1.28125-.171875 1.945313h-22.242187c-.191407 0-.375.027344-.5625.042969-.003907 0-.003907 0-.003907 0-2.371093.15625-4.328124 1.289062-5.640624 2.929687-.007813.007813-.015626.019531-.023438.027344-.207031.261719-.398438.53125-.570312.8125-.019532.03125-.035157.066406-.054688.097656-.15625.265625-.304688.53125-.425781.8125-.027344.058594-.050781.125-.078125.1875-.105469.253907-.207032.511719-.289063.777344-.03125.09375-.046875.191406-.074219.289063-.0625.238281-.125.476562-.167968.722656-.023438.128906-.03125.257812-.046875.386718-.023438.21875-.054688.433594-.0625.65625-.007813.160157.003906.320313.007812.480469.003907.195313.003907.390625.023438.585938.019531.183593.058593.367187.089843.550781.03125.175781.050782.351562.09375.523438.046876.207031.125.410156.195313.617187.050781.148437.085937.296875.144531.441406.09375.234375.21875.464844.335938.695313.0625.113281.105468.230468.171875.34375.195312.335937.417969.664062.671875.984375.003906.003906.003906.007812.007812.011719l23.851563 30.023437h.269531l2 43.394531 1.835938 39.792969c.050781 1.066406.515624 2.023437 1.234374 2.707031.71875.6875 1.695313 1.105469 2.761719 1.105469h8.375v25h-8.632812c-2.03125 0-3.738281 1.523437-3.972657 3.539063l-9.070312 78c-.277344 2.375 1.578125 4.460937 3.972656 4.460937h134.40625c2.390625 0 4.25-2.085937 3.972656-4.460937l-9.070312-78c-.230469-2.015626-1.941406-3.539063-3.972656-3.539063h-8.632813v-25h8.378907c.800781 0 1.546874-.234375 2.175781-.644531.210937-.132813.40625-.289063.585937-.460938.023438-.023437.039063-.050781.0625-.074218.679688-.683594 1.121094-1.601563 1.171875-2.636719l4.5625-98.867188c.097657-2.136719 1.859375-3.816406 3.996094-3.816406h10.351563c.011718 0 .023437-.003906.039062-.003906.703125-.007813 1.378906-.113281 2.035156-.273438.414063-.097656.820313-.214843 1.210938-.371093.847656-.335938 1.644531-.777344 2.34375-1.339844 1.121094-.894532 2.347656-1.628906 3.652344-2.152344.304687-.121094.617187-.191406.925781-.285156 1.085937-.339844 2.207031-.570313 3.367187-.570313h1.964844c9.050781 0 17.519531 4.949219 21.949219 12.875 3.363281 6.019531 2.964843 13.449219-.785157 19.230469l-21.335937 32.894531h-9.269531c-2.953125 0-4.886719 3.085938-3.597656 5.742188l.484374 1.007812 3.390626 6.992188c.667968 1.382812 2.066406 2.257812 3.597656 2.257812h5.398437c5.417969 0 10.472657-2.746093 13.421875-7.292969l21.082032-32.511718c7.164062-11.042969 7.867187-25.261719 1.273437-36.65625zm-42.464844-19.019532c0-.171874-.011719-.347656-.035156-.515624.023437.167968.035156.339843.035156.515624zm-.160156 1.140626c.085937-.28125.125-.566407.152344-.84375-.023438.277343-.066407.5625-.152344.84375l-1.503906 4.964843-.160157.523438-.253906.84375zm0 0" fill="#382b73"/><path d="m316.28125 134.300781h-169.050781c-6.695313 0-10.425781 7.734375-6.261719 12.976563l23.855469 30.023437h.265625l3.839844 83.183594c.097656 2.136719 1.859374 3.816406 3.996093 3.816406h115.75c2.136719 0 3.898438-1.679687 3.996094-3.816406l4.5625-98.867187c.101563-2.136719 1.859375-3.816407 3.996094-3.816407h10.355469c1.761718 0 3.3125-1.152343 3.824218-2.839843l4.703125-15.5c.777344-2.570313-1.148437-5.160157-3.832031-5.160157zm0 0" fill="#ef5a9d"/><g fill="#e43d91"><path d="m199.179688 260.484375-2.878907-122c-.054687-2.28125.878907-4.183594 2.042969-4.183594h-31.050781c-2.28125 0-4.101563 1.90625-3.996094 4.183594l5.632813 122c.097656 2.136719 1.855468 3.816406 3.996093 3.816406h28.296875c-1.09375 0-1.992187-1.679687-2.042968-3.816406zm0 0"/><path d="m294.304688 134.300781h-31.046876c1.164063 0 2.09375 1.90625 2.039063 4.183594l-2.875 122c-.050781 2.136719-.953125 3.816406-2.042969 3.816406h28.296875c2.136719 0 3.898438-1.679687 3.996094-3.816406l5.632813-122c.101562-2.277344-1.714844-4.183594-4-4.183594zm0 0"/><path d="m298.003906 375.300781h-134.40625c-2.390625 0-4.25-2.085937-3.972656-4.460937l9.070312-78c.234376-2.019532 1.941407-3.539063 3.972657-3.539063h116.265625c2.03125 0 3.738281 1.519531 3.972656 3.539063l9.070312 78c.277344 2.375-1.582031 4.460937-3.972656 4.460937zm0 0"/></g><path d="m267.609375 375.300781h-73.621094c-1.308593 0-2.328125-2.085937-2.175781-4.460937l4.96875-78c.128906-2.019532 1.066406-3.539063 2.175781-3.539063h63.683594c1.113281 0 2.046875 1.519531 2.175781 3.539063l4.96875 78c.152344 2.375-.867187 4.460937-2.175781 4.460937zm0 0" fill="#ef5a9d"/><path d="m181.300781 264.300781h99v25h-99zm0 0" fill="#e6e7e8"/><path d="m202.050781 264.300781h57.5v25h-57.5zm0 0" fill="#fff"/><path d="m164.890625 177.25c3.6875-2.675781 4.402344-7.882812 1.566406-11.453125l-18.65625-23.480469c-1.957031-2.460937-2.152343-5.472656-1.132812-7.976562-6.332031.425781-9.742188 7.847656-5.699219 12.9375l23.855469 30.023437zm0 0" fill="#e43d91"/><path d="m239.890625 115.015625h-18.179687l-3.953126-19.761719c-.644531-3.214844 1.816407-6.214844 5.09375-6.214844h15.898438c3.277344 0 5.734375 3 5.09375 6.214844zm0 0" fill="#e43d91"/><path d="m235.8125 115.015625h-10.027344l-2.179687-19.761719c-.355469-3.214844 1-6.214844 2.808593-6.214844h8.769532c1.808594 0 3.164062 3 2.808594 6.214844zm0 0" fill="#ef5a9d"/><path d="m219.910156 106.03125 1.796875 8.984375h18.183594l1.796875-8.984375zm0 0" fill="#a72973"/><path d="m282.230469 122.222656-29.082031-5.5625c-14.765626-2.824218-29.929688-2.820312-44.691407.003906l-29.007812 5.558594c-5.792969 1.109375-9.980469 6.175782-9.980469 12.074219v.003906h122.75c-.003906-5.902343-4.191406-10.96875-9.988281-12.078125zm0 0" fill="#fff"/><path d="m169.464844 134.296875v.003906h122.75c0-2.375-.703125-4.597656-1.894532-6.5h-118.960937c-1.1875 1.898438-1.894531 4.125-1.894531 6.496094zm0 0" fill="#d1d3d4"/><path d="m235.070312 304.339844h-8.542968c-.714844 0-1.375.378906-1.730469 1l-4.273437 7.394531c-.359376.621094-.359376 1.382813 0 2l4.273437 7.398437c.355469.621094 1.015625 1 1.730469 1h8.542968c.714844 0 1.375-.378906 1.734376-1l4.269531-7.398437c.359375-.617187.359375-1.378906 0-2l-4.269531-7.394531c-.359376-.621094-1.019532-1-1.734376-1zm0 0" fill="#e43d91"/><path d="m235.070312 301.027344h-8.542968c-.714844 0-1.375.378906-1.730469 1l-4.273437 7.398437c-.359376.617188-.359376 1.378907 0 2l4.273437 7.394531c.355469.621094 1.015625 1 1.730469 1h8.542968c.714844 0 1.375-.378906 1.734376-1l4.269531-7.394531c.359375-.621093.359375-1.382812 0-2l-4.269531-7.398437c-.359376-.621094-1.019532-1-1.734376-1zm0 0" fill="#fff"/><path d="m238.019531 310.425781c0 3.988281-3.234375 7.21875-7.21875 7.21875-3.988281 0-7.21875-3.230469-7.21875-7.21875 0-3.984375 3.230469-7.21875 7.21875-7.21875 3.984375 0 7.21875 3.234375 7.21875 7.21875zm0 0" fill="#e6e7e8"/><path d="m230.800781 315.675781c-2.894531 0-5.25-2.355469-5.25-5.25s2.355469-5.25 5.25-5.25 5.25 2.355469 5.25 5.25-2.355469 5.25-5.25 5.25zm0-8.5c-1.792969 0-3.25 1.457031-3.25 3.25s1.457031 3.25 3.25 3.25 3.25-1.457031 3.25-3.25-1.457031-3.25-3.25-3.25zm0 0" fill="#bcbec0"/><path d="m362.734375 157.339844c-7.324219-12.660156-21.003906-20.539063-35.613281-20.539063h-7.140625c.332031.808594.410156 1.734375.132812 2.660157l-1.921875 6.332031c-.511718 1.6875-2.066406 2.839843-3.828125 2.839843h-11.144531c-2.210938 0-4 1.792969-4 4v1.167969c0 2.210938 1.789062 4 4 4h8.332031c2.148438 0 4.109375-.746093 5.664063-1.988281 2.285156-1.832031 5.019531-3.011719 7.945312-3.011719h1.964844c9.054688 0 17.523438 4.949219 21.949219 12.875 3.367187 6.019531 2.96875 13.449219-.785157 19.230469l-21.335937 32.894531h-9.269531c-2.953125 0-4.886719 3.085938-3.601563 5.742188l3.875 8c.667969 1.382812 2.066407 2.257812 3.601563 2.257812h5.394531c5.421875 0 10.476563-2.746093 13.421875-7.292969l21.085938-32.511718c7.164062-11.042969 7.867187-25.261719 1.273437-36.65625zm0 0" fill="#fff"/><path d="m290.363281 131.050781h17.0625v3.25h-17.0625zm0 0" fill="#d1d3d4"/><path d="m308.34375 141.175781c-4.214844 0-7.628906-3.414062-7.628906-7.625v-2.5h12.75c1.382812 0 2.5 1.121094 2.5 2.5 0 4.210938-3.414063 7.625-7.621094 7.625zm0 0" fill="#d1d3d4"/><path d="m327.550781 144.425781c-3.285156 0-6.261719 0-8.945312 0l-.414063 1.371094c-.511718 1.683594-2.066406 2.839844-3.828125 2.839844h-11.148437c-2.207032 0-4 1.792969-4 4v1.164062c0 2.210938 1.792968 4 4 4h8.335937c2.148438 0 4.109375-.746093 5.660157-1.988281 2.285156-1.832031 5.019531-3.011719 7.945312-3.011719h1.964844c9.050781 0 17.519531 4.949219 21.949218 12.875 3.363282 6.019531 2.964844 13.449219-.785156 19.230469l-21.332031 32.894531h-9.269531c-2.953125 0-4.886719 3.085938-3.597656 5.742188l.484374 1.007812h11.460938c2.625 0 5.089844-1.28125 6.585938-3.4375 2.949218-4.253906 5.863281-8.53125 8.757812-12.820312 3.925781-5.828125 7.816406-11.683594 11.53125-17.648438 4.40625-7.078125 7.628906-13.992187 6.152344-22.59375-2.601563-15.144531-16.996094-23.625-31.507813-23.625zm0 0" fill="#e6e7e8"/></svg>