<svg id="Capa_1" enable-background="new 0 0 512 512" height="512" viewBox="0 0 512 512" width="512" xmlns="http://www.w3.org/2000/svg"><g><g><g><g><path d="m106.893 461.396h298.213c58.303-44.787 95.894-115.196 95.894-194.396 0-135.31-109.69-245-245-245s-245 109.69-245 245c0 79.2 37.591 149.609 95.893 194.396z" fill="#ffc987"/></g></g></g><g><g><g><path d="m106.893 461.396c41.304 31.729 92.997 50.604 149.107 50.604s107.803-18.875 149.107-50.604l35-289.396h-368.213z" fill="#eef6ff"/></g></g></g><g><g><g><path d="m106.893 461.396c41.304 31.729 92.997 50.604 149.107 50.604 48.857 0 94.369-14.306 132.588-38.95h-.029c-114.958 0-211.678-86.128-224.954-200.316l-11.711-100.734h-80z" fill="#d9eafc"/></g></g></g><g><g><g><path d="m376.811 60-5.128-42.401c-1.215-10.044-9.739-17.599-19.856-17.599h-70.844c-10.117 0-18.641 7.555-19.855 17.599l-5.128 42.401z" fill="#994334"/></g></g></g><g><g><g><path d="m320.983 0h-40c-10.117 0-18.641 7.555-19.855 17.599l-5.128 42.401h40l5.128-42.401c1.215-10.044 9.738-17.599 19.855-17.599z" fill="#702720"/></g></g></g><g><g><g><g><path d="m401.405 112-5.128-42.401c-1.214-10.044-9.738-17.599-19.855-17.599h-240.844c-10.117 0-18.641 7.555-19.855 17.599l-5.128 42.401z" fill="#82362b"/></g></g></g><g><g><g><path d="m215.578 52h-80c-10.117 0-18.641 7.555-19.855 17.599l-5.128 42.401h80l5.128-42.401c1.214-10.044 9.738-17.599 19.855-17.599z" fill="#702720"/></g></g></g></g><g><g><g><path d="m446 192h-380c-11.046 0-20-8.954-20-20 0-11.046 8.954-20 20-20l190-20 190 20c11.046 0 20 8.954 20 20 0 11.046-8.954 20-20 20z" fill="#fff"/></g></g></g><g><g><g><path d="m126 172c0-11.046 8.954-20 20-20v-8.421l-80 8.421c-11.046 0-20 8.954-20 20s8.954 20 20 20h80c-11.046 0-20-8.954-20-20z" fill="#eef6ff"/></g></g></g><g><g><g><path d="m446 152h-380c-11.046 0-20-8.954-20-20 0-11.046 8.954-20 20-20h380c11.046 0 20 8.954 20 20 0 11.046-8.954 20-20 20z" fill="#994334"/></g></g></g><g><g><g><path d="m126 132c0-11.046 8.954-20 20-20h-80c-11.046 0-20 8.954-20 20s8.954 20 20 20h80c-11.046 0-20-8.954-20-20z" fill="#82362b"/></g></g></g><g><g><g><path d="m419.799 423.201 21.769-180c.72-5.956-3.929-11.201-9.928-11.201h-351.281c-5.999 0-10.648 5.245-9.928 11.201l21.769 180c.607 5.022 4.869 8.799 9.928 8.799h307.742c5.06 0 9.321-3.777 9.929-8.799z" fill="#ce936b"/></g></g></g><g><g><g><path d="m440.806 249.5h-69.221c-4.142 0-7.5 3.358-7.5 7.5s3.358 7.5 7.5 7.5h67.407z" fill="#bf7e52"/></g></g></g><g><g><g><path d="m426.293 369.5h-30.206c-4.142 0-7.5 3.358-7.5 7.5s3.358 7.5 7.5 7.5h28.391z" fill="#bf7e52"/></g></g></g><g><g><g><path d="m435.364 294.5 1.814-15h-296.011c-3.621 0-6.672-2.704-7.107-6.299l-.083-.682c-.516-4.263 2.813-8.018 7.107-8.018h191.676c4.107 0 7.688-3.164 7.811-7.269.128-4.247-3.278-7.731-7.497-7.731h-195.535c-3.621 0-6.672-2.704-7.107-6.299-.72-5.956 3.929-11.201 9.928-11.201h-60c-5.999 0-10.648 5.245-9.928 11.201l21.769 180c.607 5.022 4.869 8.799 9.928 8.799h60c-5.058 0-9.32-3.777-9.928-8.799l-.083-.682c-.516-4.263 2.813-8.018 7.107-8.018h229.048c4.107 0 7.688-3.164 7.811-7.269.128-4.247-3.278-7.731-7.497-7.731h-232.907c-3.621 0-6.672-2.704-7.107-6.299l-.083-.682c-.516-4.263 2.813-8.018 7.107-8.018h204.423c4.107 0 7.688-3.164 7.811-7.269.128-4.247-3.278-7.731-7.497-7.731h-208.282c-3.621 0-6.672-2.704-7.107-6.299l-.083-.682c-.516-4.263 2.813-8.018 7.107-8.018h276.138l1.814-15h-281.497c-3.621 0-6.672-2.704-7.107-6.299l-.083-.682c-.516-4.263 2.813-8.018 7.107-8.018h259.845c4.107 0 7.688-3.164 7.811-7.269.128-4.247-3.278-7.731-7.497-7.731h-263.705c-3.621 0-6.672-2.704-7.107-6.299l-.083-.682c-.516-4.263 2.813-8.018 7.107-8.018h290.652z" fill="#bf7e52"/></g></g></g><g><g><g><circle cx="258.532" cy="332" fill="#fff" r="87.383"/></g></g></g><g><g><g><path d="m215.578 332c0-40.583 27.668-74.702 65.169-84.53-7.094-1.859-14.538-2.853-22.214-2.853-48.26 0-87.383 39.123-87.383 87.383s39.123 87.383 87.383 87.383c7.677 0 15.121-.994 22.214-2.853-37.501-9.828-65.169-43.947-65.169-84.53z" fill="#eef6ff"/></g></g></g><g><g><g><ellipse cx="258.532" cy="332" fill="#994334" rx="50" ry="60"/></g></g></g><g><g><g><path d="m237.012 332c0-27.198 15.086-50.156 35.76-57.517-4.514-1.607-9.291-2.483-14.24-2.483-27.614 0-50 26.863-50 60s22.386 60 50 60c4.949 0 9.726-.876 14.24-2.483-20.674-7.361-35.76-30.319-35.76-57.517z" fill="#82362b"/></g></g></g><g><g><g><path d="m269.452 376.44c-1.346 0-2.708-.362-3.938-1.122-3.523-2.179-4.613-6.801-2.434-10.324 2.782-4.499 3.488-9.769 1.988-14.841s-4.96-9.111-9.742-11.372c-8.569-4.052-15.026-11.588-17.714-20.678-2.688-9.089-1.371-18.926 3.616-26.987 2.178-3.522 6.802-4.611 10.324-2.433 3.523 2.179 4.612 6.801 2.433 10.324-2.783 4.499-3.489 9.77-1.988 14.842 1.5 5.072 4.96 9.111 9.742 11.372 8.569 4.052 15.025 11.588 17.714 20.678 2.688 9.089 1.372 18.925-3.614 26.986-1.42 2.293-3.874 3.555-6.387 3.555z" fill="#702720"/></g></g></g></g></svg>