<svg enable-background="new 0 0 512 512" height="512" viewBox="0 0 512 512" width="512" xmlns="http://www.w3.org/2000/svg"><g id="BULINE"><circle id="XMLID_1964_" cx="256" cy="256" fill="#27273d" r="256"/></g><g id="Icons"><g id="XMLID_1951_"><path id="XMLID_2035_" d="m282.89 242.26-1.48.62-18.53 7.74-6.88 2.87-50.11 20.93-1.07-2.21-2.66-5.52-4.53-9.38v-.01l-9.7-20.08-88.65-183.65c21.07-16.34 44.77-29.46 70.35-38.62l86.37 173.34 15.15 30.41 2.38 4.77z" fill="#bc1b1b"/><path id="XMLID_2015_" d="m412.72 53.57-88.34 183.01-9.69 20.06-4.52 9.37-4.06 8.41-50.11-20.93-6.7-2.8-16.36-6.83-1.84-.77h-.01l-1.98-.83 11.65-23.39 15.24-30.58 86.37-173.34c25.58 9.16 49.28 22.28 70.35 38.62z" fill="#db1b1b"/><circle id="XMLID_1963_" cx="256.694" cy="349.922" fill="#f6c752" r="132"/><circle id="XMLID_1962_" cx="256.694" cy="349.922" fill="#f7bb38" r="109.833"/><path id="XMLID_1961_" d="m356.194 349.922c0 9.772-1.411 19.209-4.036 28.131-12.136 41.257-50.283 71.369-95.464 71.369-45.191 0-83.337-30.121-95.464-71.378-2.625-8.913-4.036-18.358-4.036-28.122 0-54.954 44.546-99.5 99.5-99.5s99.5 44.546 99.5 99.5z" fill="#f9d178"/><path id="XMLID_1960_" d="m235.234 457.652c14.42 10.22 30.98 17.63 48.88 21.42-8.84 1.87-18.02 2.85-27.42 2.85-72.9 0-132-59.1-132-132 0-72.91 59.1-132 132-132 9.4 0 18.58.98 27.42 2.85-17.89 3.78-34.45 11.18-48.86 21.41-7.12 5.05-13.72 10.78-19.69 17.11-21.06 22.28-34.43 51.91-35.89 84.64-.1 1.98-.14 3.98-.14 5.99 0 35.09 13.69 66.98 36.02 90.62 5.98 6.32 12.57 12.06 19.68 17.11z" fill="#f7bb38"/><path id="XMLID_1959_" d="m235.234 457.652c-50.38-9.98-88.37-54.42-88.37-107.73 0-53.32 38-97.78 88.39-107.74-7.12 5.05-13.72 10.78-19.69 17.11-21.06 22.28-34.43 51.91-35.89 84.64-.1 1.98-.14 3.98-.14 5.99 0 35.09 13.69 66.98 36.02 90.62 5.98 6.32 12.57 12.06 19.68 17.11z" fill="#dda431"/><path id="XMLID_1958_" d="m179.534 349.922c0 35.09 13.69 66.98 36.02 90.62-26.08-11.86-46.14-34.64-54.32-62.5-2.63-8.92-4.04-18.36-4.04-28.12 0-40.29 23.94-74.98 58.37-90.63-21.06 22.28-34.43 51.91-35.89 84.64-.1 1.98-.14 3.98-.14 5.99z" fill="#e8be6b"/><path id="XMLID_1957_" d="m352.158 378.053c-12.136 41.257-50.283 71.369-95.464 71.369-45.191 0-83.337-30.121-95.464-71.378l17.219-32.578c1.859-3.504 6.82-3.672 8.904-.299l6.773 11.024 4.027-5.839.43-.626.009-.009.178-.262.178-.271c.131-.187.262-.364.411-.514.14-.159.29-.308.448-.448.888-.775 1.99-1.196 3.111-1.252.663-.037 1.336.065 1.981.29.28.103.561.224.822.383.262.149.514.327.757.533l.617.523c1.663 1.411 3.644 2.111 5.624 2.168 2.579.103 5.157-.897 6.998-2.84.589-.626 1.102-1.345 1.514-2.149l29.897-58.271c.364-.71.832-1.308 1.364-1.784.43-.392.897-.71 1.401-.962.252-.121.504-.224.766-.318.626-.215 1.28-.318 1.934-.327.009 0 .019.009.028 0 .71-.009 1.429.103 2.111.327.262.093.514.196.766.318.504.252.972.57 1.401.962.533.476 1 1.074 1.364 1.784l29.897 58.271c.206.402.43.785.682 1.14.383.542.822 1.028 1.289 1.457.467.43.972.803 1.504 1.112.009 0 .009.009.009.009 1.308.775 2.784 1.205 4.279 1.28 2.224.103 4.503-.598 6.372-2.177l.607-.523c.878-.747 1.943-1.14 3.008-1.205 1.719-.093 3.457.673 4.522 2.214l4.167 6.063.009.009.654.934 6.773-11.024c2.074-3.373 7.035-3.205 8.894.299z" fill="#e88032"/><path id="XMLID_1956_" d="m215.554 440.542c-26.08-11.86-46.14-34.64-54.32-62.5l17.21-32.58c.32-.61.74-1.12 1.23-1.53-.1 1.98-.14 3.98-.14 5.99 0 35.09 13.69 66.98 36.02 90.62z" fill="#e56c1a"/><path id="XMLID_1955_" d="m318.095 355.242c-1.946 8.84-10.338 6.113-10.338 6.113-6.4-2.583-6.228 7.847-6.228 7.847-8.019 22.225-21.238 0-21.238 0-9.758-14.258-14.924 16.325-14.924 16.325-18.942 19.292-25.256-20.44-25.256-20.44-7.462-11.48-19.516 3.346-19.516 3.346-16.807 9.597-21.313-8.392-22.518-18.718l.367-.534c1.716-2.497 5.218-2.962 7.525-1.004l.614.517c4.523 3.834 11.434 2.457 14.138-2.818l29.894-58.267c2.325-4.529 8.811-4.529 11.136 0l29.894 58.267c2.704 5.275 9.615 6.653 14.138 2.818l.614-.517c2.307-1.957 5.809-1.492 7.525 1.004z" fill="#d36e2a"/><g id="XMLID_1952_" fill="#fcebcd"><circle id="XMLID_1954_" cx="323.606" cy="303.247" r="8.946"/><circle id="XMLID_1953_" cx="310.648" cy="286.877" r="7.01"/></g></g></g></svg>