<svg enable-background="new 0 0 512 512" height="512" viewBox="0 0 512 512" width="512" xmlns="http://www.w3.org/2000/svg"><g id="BULINE"><circle id="XMLID_108_" cx="256" cy="256" fill="#fcc8bc" r="256"/></g><g id="Icons"><g id="XMLID_347_"><path id="XMLID_378_" d="m510.05 287.66c-3.62 29.43-12.25 57.32-25 82.78-1.35 2.71-2.75 5.39-4.21 8.04-19.93 36.52-48.5 67.65-82.96 90.63-60.33 5.64-159.18 16.38-236.22 24.94-57.35-22.74-104.54-65.62-132.82-119.91l-25.1-161.92c1.5-8.73 3.44-17.32 5.81-25.72 1.46-5.18 3.07-10.29 4.85-15.33 18.88-53.81 55.24-99.39 102.26-129.96 35.71 9.67 78.41 31.19 115.37 77.52 13.64 17.09 132.38 73.64 143.32 84.91.15.15 46.67 51.68 68.37 55.54 20.07 3.57 44.86 11.44 66.33 28.48z" fill="#d0e1fc"/><path id="XMLID_377_" d="m485.05 370.44c-1.35 2.71-2.75 5.39-4.21 8.04-19.93 36.52-48.5 67.65-82.96 90.63-40.61 27.1-89.4 42.89-141.88 42.89-33.32 0-65.15-6.37-94.34-17.95-57.35-22.74-104.54-65.62-132.82-119.91-18.43-35.35-28.84-75.53-28.84-118.14 0-14.93 1.28-29.56 3.74-43.78 1.5-8.73 3.44-17.32 5.81-25.72 5.58-5.24 11.52-9.96 17.75-14.15 23.62-15.86 51.37-24.13 79.33-24.13 30.65 0 61.54 9.93 87.52 30.66 12.95 10.33 25.73 22.88 37.88 38.12 6.73 8.44 92.18 50.81 97.29 53.17 22.91 10.58 46.21 26.86 61.86 51.86.01.02.02.03.03.05 11.69 18.64 30.83 31.51 52.51 35.37 7.16 1.27 14.92 3.1 22.92 5.69 6.05 1.95 12.24 4.35 18.41 7.3z" fill="#bfd6f7"/><path id="XMLID_376_" d="m480.84 378.48c-19.93 36.52-48.5 67.65-82.96 90.63-40.61 27.1-89.4 42.89-141.88 42.89-33.32 0-65.15-6.37-94.34-17.95-57.35-22.74-104.54-65.62-132.82-119.91-18.43-35.35-28.84-75.53-28.84-118.14 0-14.93 1.28-29.56 3.74-43.78 1.5-8.73 3.44-17.32 5.81-25.72 1.46-5.18 3.07-10.29 4.85-15.33 3.84.28 8.16.66 12.9 1.18 41.91 4.66 116.13 20.67 176.37 75.13 7.39 6.68 14.56 13.93 21.44 21.82 4.27 4.88 76.29 50.64 90.73 52.44 10.37 1.3 21.69 1.56 33.91.3 0 0 16.83-4.55 41.46.04 21.26 3.94 48.34 14.69 75.43 41.06 4.75 4.62 9.49 9.71 14.2 15.34z" fill="#fff"/><g fill="#d0e1fc"><path id="XMLID_375_" d="m57.387 343.902s127.955-50.558 231.978 24.609c0 0-112.978-39.385-231.978-24.609z"/><path id="XMLID_374_" d="m273.585 403.844s26.045-47.167 96.923-12.667c.001 0-55.725-16.166-96.923 12.667z"/><path id="XMLID_373_" d="m49.387 234.677s65.332-33.189 93 37.905c0 0 38-11.366 51 20.364 0 0-24-23.269-61-3.769 0 0-7.583-61.176-83-54.5z"/></g><g id="XMLID_349_"><path id="XMLID_372_" d="m329.467 249.722c-4.787 25.618-8.605 51.437-11.451 77.449-1.307 11.772-2.399 23.592-3.295 35.457-.67 8.798-1.231 17.614-1.686 26.46-.116 2.325-.342 4.641-.677 6.938-1.076 7.589-3.306 14.983-6.733 21.741-.731 1.435-1.509 2.851-2.351 4.226-13.265 21.755-37.108 34.351-61.471 30.049-24.383-4.305-42.484-24.348-47.471-49.356-2.232-11.168-1.345-22.923 2.005-33.959 2.406-7.932 4.723-15.881 6.94-23.836 2.07-7.413 4.052-14.841 5.965-22.282 2.55-9.958 4.963-19.941 7.226-29.94 2.479-10.936 4.781-21.902 6.904-32.891 2.043-10.535 3.927-21.088 5.643-31.671 5.81-35.663 9.797-71.587 11.945-107.795.61-10.24 1.072-20.506 1.385-30.788.361-11.706 3.353-23.302 9.19-33.299 13.097-22.414 37.325-35.582 62.161-31.197l6.795 1.2c24.846 4.387 43.096 25.076 47.715 50.618 2.073 11.435.886 23.39-2.838 34.533-4.262 12.753-8.279 25.55-12.031 38.403-9.627 32.966-17.581 66.281-23.87 99.94z" fill="#3586cb"/><path id="XMLID_371_" d="m273.199 60.049c-5.837 9.997-8.829 21.594-9.19 33.299-.163 5.292-.365 10.578-.598 15.868-.229 4.976-.489 9.957-.786 14.921-2.149 36.208-6.136 72.132-11.945 107.795-1.033 6.367-2.127 12.734-3.287 19.079-.752 4.203-1.544 8.399-2.355 12.592-.659 3.387-1.33 6.782-2.018 10.164-1.543 7.587-3.176 15.169-4.886 22.727-.749 3.32-1.517 6.637-2.315 9.949-1.564 6.67-3.208 13.335-4.911 19.991-.84 3.264-1.689 6.516-2.558 9.774-1.112 4.17-2.246 8.347-3.407 12.508-.892 3.214-1.806 6.434-2.74 9.651-1.364 4.735-2.768 9.463-4.201 14.186-3.35 11.036-4.237 22.79-2.005 33.959 1.178 5.925 3.104 11.576 5.675 16.803 6.608 13.474 17.509 24.142 31.159 29.538-3.644.108-7.324-.156-11.027-.81-24.383-4.305-42.484-24.348-47.471-49.356-1.642-8.241-1.594-16.793-.11-25.142.254-1.438.549-2.878.901-4.299.35-1.522.757-3.024 1.214-4.518.046-.144.098-.267.124-.415l.002-.01c2.36-7.788 4.633-15.602 6.815-23.412 2.07-7.413 4.052-14.841 5.965-22.282 2.55-9.958 4.963-19.941 7.226-29.94 2.479-10.936 4.781-21.902 6.904-32.891 2.043-10.535 3.927-21.088 5.643-31.671 5.81-35.663 9.797-71.587 11.945-107.795.552-9.336.985-18.693 1.289-28.063.038-.907.067-1.816.095-2.725.361-11.706 3.353-23.302 9.19-33.299 13.097-22.414 37.325-35.582 62.161-31.197l6.795 1.2c2.521.445 4.971 1.061 7.345 1.825-20.42-.752-39.682 9.992-51.772 27.507-1.009 1.446-1.964 2.942-2.866 4.489z" fill="#366fca"/><path id="XMLID_370_" d="m353.339 149.78c-9.629 32.968-17.583 66.282-23.871 99.942l-25.166-16.871c-7.108-4.765-16.387-4.776-23.506-.027l-24.867 16.588c-5.163 3.444-12.149 1.966-15.474-3.275l-11.439-18.029c5.81-35.663 9.797-71.587 11.945-107.795l35.354-17.468c8.444-4.172 17.905 3.447 15.629 12.586l-4.308 17.301c-1.582 6.354 4.831 11.751 10.821 9.107l16.344-7.214c7.506-3.313 15.879 2.413 15.513 10.609l-.306 6.861c-.255 5.715 6.105 9.284 10.851 6.09z" fill="#fc715a"/><path id="XMLID_369_" d="m247.392 251.011c-2.764-.62-5.293-2.285-6.939-4.871l-11.439-18.034c5.81-35.663 9.797-71.587 11.945-107.795l22.451-11.095c-.229 4.976-.489 9.957-.786 14.921-2.149 36.208-6.136 72.132-11.945 107.795-1.033 6.367-2.126 12.734-3.287 19.079z" fill="#e55b48"/><path id="XMLID_368_" d="m314.721 362.628-98.252-69.96c2.479-10.936 4.781-21.902 6.904-32.891l94.644 67.393c-1.307 11.773-2.399 23.593-3.296 35.458z" fill="#cd88f8"/><path id="XMLID_367_" d="m305.625 417.766-102.347-72.876c2.07-7.413 4.052-14.841 5.965-22.282l103.115 73.418c-1.076 7.588-3.306 14.983-6.733 21.74z" fill="#cd88f8"/><path id="XMLID_366_" d="m243.018 273.767c-1.543 7.587-3.176 15.169-4.886 22.727-.749 3.32-1.517 6.637-2.315 9.949l-19.35-13.774c2.479-10.936 4.781-21.902 6.904-32.891z" fill="#bc6cf4"/><path id="XMLID_365_" d="m209.241 322.608 19.106 13.599c-1.112 4.17-2.246 8.347-3.407 12.508-.892 3.214-1.806 6.434-2.74 9.651l-18.925-13.476c2.072-7.413 4.053-14.842 5.966-22.282z" fill="#bc6cf4"/><path id="XMLID_364_" d="m313.039 389.089c-.602 11.633-3.783 23.094-9.76 32.904-13.265 21.755-37.108 34.351-61.471 30.049-24.383-4.305-42.484-24.348-47.471-49.356-2.232-11.168-1.345-22.923 2.005-33.959.046-.144.09-.279.126-.425-.247 5.308.117 10.612 1.152 15.791 4.986 25.018 23.087 45.061 47.469 49.366 24.363 4.302 48.208-8.304 61.473-30.059 2.744-4.501 4.899-9.34 6.479-14.382-.003.02.002.051-.002.071z" fill="#fc715a"/><path id="XMLID_363_" d="m252.829 452.851c-3.644.108-7.324-.156-11.027-.81-24.383-4.305-42.484-24.348-47.471-49.356-1.642-8.241-1.594-16.793-.11-25.142.254-1.438.559-2.877.901-4.299.35-1.522.757-3.024 1.214-4.518.046-.144.098-.267.124-.415-.247 5.308.118 10.602 1.154 15.781 3.203 16.082 11.826 30.105 24.057 39.22 6.607 13.475 17.508 24.143 31.158 29.539z" fill="#e55b48"/><path id="XMLID_362_" d="m365.368 111.377c-.259.777-.52 1.563-.779 2.34-.036-3.591-.37-7.163-1.007-10.688-4.617-25.552-22.868-46.241-47.714-50.628l-6.795-1.2c-24.836-4.385-49.066 8.792-62.161 31.197-1.834 3.139-3.381 6.44-4.664 9.849.038-.907.067-1.816.095-2.725.361-11.706 3.353-23.302 9.19-33.299 13.097-22.414 37.325-35.582 62.161-31.197l6.795 1.2c24.846 4.387 43.096 25.075 47.716 50.618 2.074 11.435.887 23.391-2.837 34.533z" fill="#fc715a"/><path id="XMLID_361_" d="m327.835 28.052c-20.42-.752-39.682 9.992-51.772 27.507-11.842 5.413-22.109 14.791-29.151 26.84-1.834 3.139-3.381 6.44-4.664 9.849.038-.907.067-1.816.095-2.725.361-11.706 3.353-23.302 9.19-33.299 13.097-22.414 37.325-35.582 62.161-31.197l6.795 1.2c2.522.445 4.972 1.06 7.346 1.825z" fill="#e55b48"/><g id="XMLID_358_" fill="#52a2dd"><circle id="XMLID_360_" cx="341.73" cy="119.025" r="8.946"/><circle id="XMLID_359_" cx="345.36" cy="98.465" r="7.01"/></g><g id="XMLID_354_"><path id="XMLID_357_" d="m297.048 206.159-27.482-7.028c-12.595-3.221-20.58-15.602-18.32-28.404 2.26-12.802 14.003-21.7 26.939-20.413l28.227 2.808c14.397 1.432 24.534 14.81 22.018 29.057l-.745 4.22c-2.515 14.248-16.62 23.345-30.637 19.76z" fill="#32314b"/><g fill="#fff"><path id="XMLID_356_" d="m301.611 211.861-2.954-.522c-5.303-.936-8.842-5.994-7.906-11.297l7.651-43.33c.936-5.303 5.994-8.842 11.297-7.906l2.954.522c5.303.936 8.842 5.994 7.906 11.297l-7.651 43.33c-.936 5.302-5.994 8.842-11.297 7.906z"/><path id="XMLID_355_" d="m268.669 200.015c-6.119-1.08-10.203-6.916-9.123-13.035l5.064-28.681c1.08-6.119 6.916-10.203 13.035-9.122 6.119 1.08 10.203 6.916 9.122 13.035l-5.064 28.681c-1.079 6.118-6.915 10.202-13.034 9.122z"/></g></g><g id="XMLID_350_"><path id="XMLID_353_" d="m273.533 339.341-27.482-7.028c-12.595-3.221-20.58-15.602-18.32-28.404 2.26-12.802 14.003-21.7 26.939-20.413l28.227 2.808c14.397 1.432 24.534 14.81 22.018 29.057l-.745 4.22c-2.515 14.247-16.62 23.344-30.637 19.76z" fill="#32314b"/><g fill="#fff"><path id="XMLID_352_" d="m278.096 345.042-2.954-.522c-5.303-.936-8.842-5.994-7.906-11.297l7.651-43.33c.936-5.303 5.994-8.842 11.297-7.906l2.954.522c5.303.936 8.842 5.994 7.906 11.297l-7.651 43.33c-.937 5.302-5.994 8.842-11.297 7.906z"/><path id="XMLID_351_" d="m245.154 333.196c-6.119-1.08-10.203-6.916-9.123-13.035l5.064-28.681c1.08-6.119 6.916-10.203 13.035-9.122 6.119 1.08 10.203 6.916 9.122 13.035l-5.064 28.681c-1.08 6.118-6.916 10.202-13.034 9.122z"/></g></g></g><path id="XMLID_348_" d="m331.432 410.235c-4.655-6.719-13.875-8.393-20.595-3.738-4.173 2.891-6.396 7.542-6.37 12.262-3.253.462-6.451 1.663-9.336 3.661-.541.375-1.056.773-1.552 1.187-10.853-9.766-27.361-11.195-39.885-2.52-3.687 2.554-6.675 5.741-8.922 9.312-4.239-.456-8.356.953-11.404 3.66-2.494-2.139-5.507-3.749-8.912-4.598-.639-.159-1.278-.283-1.916-.383.175-14.599-9.646-27.945-24.428-31.629-17.269-4.304-34.758 6.207-39.062 23.476s6.207 34.758 23.476 39.062c5.745 1.432 11.51 1.216 16.81-.335 2.662 5.841 7.86 10.459 14.572 12.132 10.489 2.614 21.093-2.851 25.263-12.447.153.043.299.099.454.138.879.219 1.758.341 2.631.398.865 2.089 1.957 4.12 3.297 6.055 10.135 14.63 30.211 18.274 44.841 8.14 4.867-3.371 8.51-7.846 10.842-12.851 6.145 1.854 13.045.997 18.732-2.942 8.886-6.156 11.778-17.729 7.321-27.195.133-.086.272-.159.404-.25 6.719-4.655 8.393-13.876 3.739-20.595z" fill="#fff"/></g></g></svg>