<svg id="Capa_1" enable-background="new 0 0 512 512" height="512" viewBox="0 0 512 512" width="512" xmlns="http://www.w3.org/2000/svg"><g><g><g><g><g><g><path d="m38.557 391.175c-24.439-39.229-38.557-85.553-38.557-135.175 0-141.385 114.615-256 256-256s256 114.615 256 256c0 69.457-27.661 132.452-72.567 178.573h-321.451z" fill="#a3d4ff"/></g></g></g></g></g><path d="m512 256c0-11.844-.805-23.501-2.362-34.917l-156.863-156.974-221.045 187.97 182.494 182.494h125.208c44.907-46.121 72.568-109.116 72.568-178.573z" fill="#65b1fc"/><g><path d="m187.186 502.645c21.896 6.096 44.975 9.355 68.814 9.355 71.928 0 136.928-29.665 183.433-77.427l-13.408-19.385c-13.192-19.072-32.262-33.304-54.299-40.523l-58.597-19.196c-12.415-4.067-20.811-15.652-20.811-28.717v-39.35h-72.634v39.35c0 13.064-8.396 24.65-20.811 28.717l-58.598 19.196c-22.037 7.219-41.107 21.451-54.299 40.523z" fill="#00c8c8"/></g><g><path d="m439.433 434.573-13.408-19.385c-13.192-19.072-32.262-33.304-54.299-40.523l-58.598-19.196c-12.415-4.067-20.811-15.652-20.811-28.717v-39.35h-36.197v224.596c71.881-.033 136.834-29.689 183.313-77.425z" fill="#1cadb5"/></g><g><path d="m332.895 383.545c-44.616 36.91-109.166 36.91-153.782 0 0-30.415 0-60.829 0-91.244 44.617 36.91 109.166 36.91 153.782 0z" fill="#1cadb5"/></g><g><path d="m332.895 292.301c-22.277 18.429-49.522 27.654-76.775 27.68v91.244c27.253-.026 54.498-9.251 76.775-27.68 0-30.415 0-60.829 0-91.244z" fill="#00a0aa"/></g><g><path d="m256 512c6.724 0 13.388-.259 19.982-.769v-181.554h-39.964v181.554c6.594.51 13.258.769 19.982.769z" fill="#00a0aa"/></g><g><path d="m275.982 329.677h-19.862v182.322c6.683-.003 13.307-.261 19.861-.767v-181.555z" fill="#108d91"/></g><g><path d="m256 332.337c-51.82 0-93.828-42.008-93.828-93.828v-57.966c0-51.82 42.008-93.828 93.828-93.828 51.82 0 93.828 42.008 93.828 93.828v57.966c0 51.819-42.008 93.828-93.828 93.828z" fill="#ffdecf"/></g><g><path d="m256.12 86.717v245.618c51.764-.065 93.707-42.047 93.707-93.826v-57.966c.001-51.779-41.942-93.761-93.707-93.826z" fill="#ffcdbe"/></g><g><g><path d="m320.304 132.601h54.486v319.399h-54.486z" fill="#fdba12"/></g><g><path d="m137.21 132.601h54.486v319.399h-54.486z" fill="#ffce00"/></g></g><g><path d="m374.79 198.264h-240.706v-80.226c0-42.56 34.501-77.061 77.061-77.061h86.584c42.559 0 77.061 34.501 77.061 77.061z" fill="#fe6a16"/></g><g><path d="m374.79 118.038c0-42.559-34.501-77.061-77.061-77.061h-41.609v157.286h118.67z" fill="#f24500"/></g><g><path d="m124.334 175.054v29.029c0 22.797 16.156 42.476 38.555 46.717 21.305 4.034 42.86 6.668 64.491 7.901 5.787-10.453 11.58-21.16 17.375-31.982 2.203-4.114 6.501-6.656 11.168-6.656h.153c4.667 0 8.965 2.542 11.168 6.656 5.795 10.822 11.588 21.529 17.375 31.982 21.631-1.234 43.185-3.868 64.491-7.901 22.4-4.241 38.555-23.92 38.555-46.717v-29.029c0-22.937-16.38-42.535-38.92-46.786-61.149-11.531-124.342-11.531-185.491 0-22.54 4.251-38.92 23.849-38.92 46.786z" fill="#fff"/><path d="m348.746 128.268c-30.535-5.758-61.58-8.64-92.625-8.647v100.445c4.65.016 8.928 2.554 11.124 6.655 5.795 10.822 11.588 21.529 17.375 31.982 21.631-1.234 43.185-3.868 64.491-7.901 22.4-4.241 38.555-23.92 38.555-46.717v-29.029c0-22.939-16.38-42.537-38.92-46.788z" fill="#e9edf5"/><path d="m276.062 274.215-4.566-8.247c-4.689-8.47-9.657-17.597-15.497-28.476-5.84 10.879-10.808 20.006-15.497 28.476l-4.566 8.247-9.411-.537c-22.258-1.269-44.608-4.008-66.427-8.139-29.415-5.569-50.765-31.415-50.765-61.455v-29.029c0-30.063 21.508-55.938 51.141-61.526 63.386-11.952 127.664-11.952 191.05 0 29.633 5.588 51.141 31.463 51.141 61.526v29.029c0 30.04-21.35 55.886-50.765 61.455-21.819 4.131-44.169 6.87-66.427 8.139zm-20.062-139.649c-30.059 0-60.118 2.814-89.966 8.443-15.471 2.917-26.699 16.394-26.699 32.046v29.029c0 15.64 11.08 29.089 26.346 31.979 17.479 3.309 35.321 5.67 53.167 7.037 3.839-7.013 7.971-14.657 12.686-23.46 4.814-8.99 14.16-14.575 24.39-14.575h.002.152c10.23 0 19.577 5.584 24.391 14.575 4.714 8.803 8.847 16.447 12.685 23.46 17.845-1.367 35.688-3.727 53.167-7.037 15.266-2.89 26.346-16.34 26.346-31.979v-29.029c0-15.651-11.228-29.128-26.699-32.046-29.85-5.629-59.909-8.443-89.968-8.443z" fill="#707789"/><path d="m351.525 113.528c-31.653-5.969-63.529-8.956-95.404-8.963v30.002c30.018.008 60.037 2.821 89.846 8.442 15.471 2.917 26.699 16.394 26.699 32.046v29.029c0 15.64-11.08 29.089-26.346 31.979-17.479 3.309-35.321 5.67-53.166 7.037-3.839-7.013-7.972-14.657-12.686-23.46-4.808-8.978-14.135-14.558-24.347-14.573v32.651c5.787 10.778 10.72 19.841 15.376 28.252l4.566 8.247 9.411-.537c22.258-1.269 44.608-4.008 66.427-8.139 29.415-5.569 50.765-31.415 50.765-61.455v-29.029c-.001-30.066-21.508-55.941-51.141-61.529z" fill="#555a66"/></g><g><path d="m187.186 502.645-27.043-180.537c-5.338-35.634-38.552-60.194-74.186-54.856-35.634 5.338-60.194 38.552-54.856 74.186l7.449 49.726c33.452 53.703 86.245 94.111 148.636 111.481z" fill="#fe6a16"/></g><g><path d="m160.144 322.109c-5.338-35.634-38.552-60.194-74.186-54.856-.086.013-.169.032-.255.045l23.529 198.458c23.416 16.415 49.696 29.022 77.955 36.89z" fill="#f24500"/></g><g><path d="m152.596 161.45h61.739v30h-61.739z" fill="#e9edf5" transform="matrix(.707 -.707 .707 .707 -71.033 181.407)"/></g><g><path d="m200.233 181.65h39.009v30h-39.009z" fill="#e9edf5" transform="matrix(.707 -.707 .707 .707 -74.693 212.972)"/></g></g></svg>