<svg height="512" viewBox="0 0 512 512" width="512" xmlns="http://www.w3.org/2000/svg"><g id="BULINE"><circle cx="256" cy="256" fill="#fcc8bc" r="256"/></g><g id="Icons"><path d="m510.05 287.66a253.91 253.91 0 0 1 -25 82.78q-2 4.06-4.21 8a257.1 257.1 0 0 1 -83 90.63c-60.33 5.64-159.18 16.38-236.22 24.94a256.84 256.84 0 0 1 -132.78-119.87l-25.1-161.92a251.72 251.72 0 0 1 5.81-25.72q2.19-7.77 4.85-15.33a256.68 256.68 0 0 1 102.26-130c35.71 9.71 78.41 31.23 115.34 77.56a119.5 119.5 0 0 0 52.18 37.42c2.84 1 5.74 2 8.67 2.83.69.21 1.38.4 2.08.59 2.09.56 4.24 1.17 6.42 1.82l2.34.72c4.76 1.48 9.69 3.18 14.71 5.15a190.37 190.37 0 0 1 17.71 8c.95.48 1.89 1 2.83 1.47a147.68 147.68 0 0 1 36.38 26.95l.45.46c1.48 1.53 2.92 3.11 4.34 4.74 1.83 2.11 3.6 4.31 5.31 6.58q3 4 5.73 8.33a78.2 78.2 0 0 0 52.54 35.43c20.1 3.53 44.89 11.4 66.36 28.44z" fill="#d0e1fc"/><path d="m485.05 370.44q-2 4.06-4.21 8a256.06 256.06 0 0 1 -477.1-166.22 251.72 251.72 0 0 1 5.81-25.72 140.3 140.3 0 0 1 17.75-14.15 142.51 142.51 0 0 1 79.33-24.13 139.71 139.71 0 0 1 87.52 30.66 239.33 239.33 0 0 1 37.85 38.12 117 117 0 0 0 23.23 22.06 120.19 120.19 0 0 0 22.2 12.65q3.51 1.53 7.12 2.84 5.1 1.88 10.38 3.29c2 .53 4 1.09 6 1.7 4.26 1.27 8.68 2.72 13.18 4.37 5 1.82 10.07 3.9 15.18 6.26 22.94 10.58 46.24 26.83 61.89 51.83v.05a78.24 78.24 0 0 0 52.51 35.37 172.31 172.31 0 0 1 22.92 5.69 147.79 147.79 0 0 1 18.44 7.33z" fill="#bfd6f7"/><path d="m480.84 378.48a256.06 256.06 0 0 1 -477.1-166.26 251.72 251.72 0 0 1 5.81-25.72q2.19-7.77 4.85-15.33c3.84.28 8.16.66 12.9 1.18 41.91 4.65 116.13 20.65 176.37 75.13a257.59 257.59 0 0 1 21.44 21.82q6.4 7.32 12.43 15.38a81.72 81.72 0 0 0 8.1 7.4 131.47 131.47 0 0 0 15.87 11.06l1.11.66a139.15 139.15 0 0 0 13.08 6.71c.82.37 1.65.73 2.49 1.09a140.22 140.22 0 0 0 37.65 10.14 149 149 0 0 0 33.91.3s16.83-4.55 41.46 0c21.26 3.94 48.34 14.69 75.43 41.06a203.58 203.58 0 0 1 14.2 15.38z" fill="#fff"/><g fill="#d0e1fc"><path d="m57.39 343.9s128-50.56 232 24.61c-.03 0-113-39.38-232-24.61z"/><path d="m273.59 403.84s26-47.16 96.92-12.66c0 0-55.73-16.18-96.92 12.66z"/><path d="m49.39 234.68s65.33-33.19 93 37.9c0 0 38-11.36 51 20.37 0 0-24-23.27-61-3.77 0 0-7.59-61.18-83-54.5z"/></g><path d="m232.44 142.67-42.26-59.43-15.76 10.65 42.16 60.02z" fill="#934cf5"/><path d="m203.43 144.53h71.38v85.33h-71.38z" fill="#f6c752"/><path d="m370.05 197.9 1.51-1.8a9.76 9.76 0 0 0 -1.75-14.19l-12.46-9-12.58 15 11 10.73a9.76 9.76 0 0 0 14.28-.74z" fill="#f6c752"/><path d="m312.38 159.47-37 8.08a11.89 11.89 0 0 1 -14.16-9.08l-.18-.83a11.9 11.9 0 0 1 9.08-14.16l42.5-9.18a14.69 14.69 0 0 1 13.61 4.08l38.57 39.42-17.6 17.2z" fill="#e84242"/><ellipse cx="239.49" cy="111.55" fill="#fcc8bc" rx="30.29" ry="25.68" transform="matrix(.097 -.995 .995 .097 105.16 339.05)"/><path d="m266.46 137.51-38.46-11.51-69.91-20.82-6.46 21.11 70.18 21.41 38.46 11.53c2.36.71 4.91-1 5.7-3.7l3.34-11.73c.79-2.8-.49-5.58-2.85-6.29z" fill="#aa60fa"/><path d="m166.85 156.67 36.46 10.33a11.9 11.9 0 0 0 14.69-8.22l.23-.82a11.89 11.89 0 0 0 -8.23-14.68l-41.75-11.6a14.7 14.7 0 0 0 -13.75 3.22l-41.1 36.89 16.52 18.27z" fill="#e84242"/><path d="m233.29 64.93h12.49a23.16 23.16 0 0 1 23.16 23.16v16.72a2.31 2.31 0 0 1 -2.31 2.31h-54.2a2.31 2.31 0 0 1 -2.31-2.31v-16.72a23.16 23.16 0 0 1 23.16-23.16z" fill="#db1b1b" transform="matrix(1 .029 -.029 1 2.58 -6.88)"/><path d="m103 197.81-1.45-1.81a9.75 9.75 0 0 1 2-14.15l12.63-8.75 12.28 15.2-11.2 10.51a9.77 9.77 0 0 1 -14.26-1z" fill="#f6c752"/><path d="m240.43 205.86h-6.55a27.67 27.67 0 0 0 -23.36 12.84l-7.09 11.16v13a22.33 22.33 0 0 0 22.33 22.33h13.73z" fill="#7e3ae8"/><path d="m282.54 214.62-36.45 13.24v33.33l46.01-13.33z" fill="#7e3ae8"/><path d="m355.43 295.19-36.67 1-39.64-58.69a16.32 16.32 0 0 1 3.41-22.84 16.34 16.34 0 0 1 22.85 3.34z" fill="#934cf5"/><path d="m240.43 205.86a16.33 16.33 0 0 1 16.33 16.33v73a0 0 0 0 1 0 0h-32.66a0 0 0 0 1 0 0v-73a16.33 16.33 0 0 1 16.33-16.33z" fill="#934cf5"/><path d="m224.1 295.19h34.33a20.33 20.33 0 0 1 20.33 20.33v.33a7.33 7.33 0 0 1 -7.33 7.33h-38.33a9 9 0 0 1 -9-9v-19a0 0 0 0 1 0 .01z" fill="#fff"/><path d="m317.44 295.19h34.33a20.33 20.33 0 0 1 20.33 20.33v.33a7.33 7.33 0 0 1 -7.33 7.33h-38.33a9 9 0 0 1 -9-9v-19a0 0 0 0 1 0 .01z" fill="#fff"/><path d="m266.6 103.92v4.89a13.27 13.27 0 0 1 -13.27 13.26h-5.91a8.75 8.75 0 0 1 -6.36-2.75l-1.85-1.95-1.86 1.95a8.75 8.75 0 0 1 -6.36 2.75h-5.9a13.27 13.27 0 0 1 -13.27-13.26v-4.89z" fill="#27273d"/><path d="m389.13 360.68q-97-3.62-194.07 0a23.48 23.48 0 0 1 -23.49-23.49 23.48 23.48 0 0 1 23.49-23.48 1769.55 1769.55 0 0 0 194.07 0 23.48 23.48 0 0 1 23.49 23.48 23.48 23.48 0 0 1 -23.49 23.49z" fill="#db1b1b"/><path d="m412.62 337.19a23.49 23.49 0 0 1 -23.48 23.49q-97-3.62-194.08 0a23.49 23.49 0 0 1 -23.49-23.49 23.2 23.2 0 0 1 1.34-7.8 23.47 23.47 0 0 0 22.15 15.67q97-3.62 194.08 0a23.49 23.49 0 0 0 22.14-15.67 23.2 23.2 0 0 1 1.34 7.8z" fill="#c11616"/></g></svg>